<svg width="287" height="79" viewBox="0 0 287 79" fill="none" xmlns="http://www.w3.org/2000/svg">
<g clip-path="url(#clip0_3_743)">
<mask id="mask0_3_743" style="mask-type:luminance" maskUnits="userSpaceOnUse" x="0" y="0" width="287" height="79">
<path d="M286.687 0H0V78.6985H286.687V0Z" fill="white"/>
</mask>
<g mask="url(#mask0_3_743)">
<path d="M108.708 35.3354C116.341 35.3354 122.282 31.5022 122.959 22.9017H115.905C114.891 27.2265 112.186 28.9957 108.708 28.9957C102.766 28.9957 100.399 24.0812 100.399 17.6432C100.399 11.2051 102.815 6.33974 108.708 6.33974C112.234 6.33974 114.891 8.10894 115.905 12.3846H122.959C122.282 3.83333 116.341 0 108.708 0C99.1427 0 92.9596 6.53633 92.9596 17.6432C92.9596 28.7992 99.1427 35.3354 108.708 35.3354Z" fill="white"/>
<path d="M175.097 35.3354C184.855 35.3354 191.231 28.1602 191.231 17.6432C191.231 7.07691 184.855 0 175.097 0C165.338 0 158.961 7.07691 158.961 17.6432C158.961 28.1602 165.338 35.3354 175.097 35.3354ZM175.097 28.9957C169.541 28.9957 166.401 24.4744 166.401 17.6432C166.401 10.7628 169.541 6.33974 175.097 6.33974C180.651 6.33974 183.792 10.7628 183.792 17.6432C183.792 24.4744 180.651 28.9957 175.097 28.9957Z" fill="white"/>
<path d="M240.236 35.3336C248.448 35.3336 254.148 30.9598 254.148 21.7695V0.44043H246.854V21.2289C246.854 26.3399 244.39 28.9446 240.236 28.9446C236.081 28.9446 233.569 26.3399 233.569 21.2289V0.44043H226.275V21.7695C226.275 30.9598 231.927 35.3336 240.236 35.3336Z" fill="white"/>
<path d="M272.593 35.3354C280.274 35.3354 286.313 32.141 286.313 24.7201C286.313 19.5107 283.268 16.4145 275.347 14.891L270.806 14.0064C267.761 13.4658 266.94 11.7949 266.94 10.2222C266.94 8.10894 268.391 6.09402 272.255 6.09402C275.54 6.09402 278.051 7.47009 277.955 10.5662H285.393C285.393 3.53847 279.887 0 272.159 0C264.574 0 259.357 3.34188 259.357 9.92735C259.357 16.1688 263.848 18.626 269.163 19.7073L274.042 20.641C277.085 21.2307 278.632 22.4103 278.632 24.7693C278.632 27.5704 276.553 29.2415 272.64 29.2415C268.004 29.2415 266.072 26.6859 265.927 23.5897H258.437C258.437 31.1581 263.946 35.3354 272.593 35.3354Z" fill="white"/>
<path d="M148.44 0.789062V14.7119H141.326V20.7066H148.44V34.6295H155.73V0.789062H148.44Z" fill="white"/>
<path d="M135.137 14.7119L135.138 20.7066L135.137 34.6295H127.847V0.789062H135.137V14.7119Z" fill="white"/>
<path fill-rule="evenodd" clip-rule="evenodd" d="M183.101 77.9136H159.526V44.0732H182.618V50.3578H166.773V57.9478H181.168V63.6039H166.773V71.629H183.101V77.9136Z" fill="white"/>
<path d="M109.095 78.6195C118.853 78.6195 125.229 71.4443 125.229 60.9273C125.229 50.361 118.853 43.2842 109.095 43.2842C99.3364 43.2842 92.9596 50.361 92.9596 60.9273C92.9596 71.4443 99.3364 78.6195 109.095 78.6195ZM109.095 72.2799C103.539 72.2799 100.399 67.7586 100.399 60.9273C100.399 54.047 103.539 49.6239 109.095 49.6239C114.649 49.6239 117.79 54.047 117.79 60.9273C117.79 67.7586 114.649 72.2799 109.095 72.2799Z" fill="white"/>
<path fill-rule="evenodd" clip-rule="evenodd" d="M0.0403442 69.934L8.68706 78.6764L17.3338 69.934L8.68706 61.1914L0.0403442 69.934Z" fill="white"/>
<path fill-rule="evenodd" clip-rule="evenodd" d="M77.8475 8.74262L69.2004 0L60.5538 8.74262L69.2004 17.4852L77.8475 8.74262Z" fill="white"/>
<path fill-rule="evenodd" clip-rule="evenodd" d="M47.5922 48.0784L38.9453 56.821L30.2987 48.0784L21.6519 39.3358L30.2987 30.5932L38.9453 21.8507L47.5922 30.5932L56.2388 39.3358L47.5922 48.0784ZM73.5322 39.3358L64.8854 30.5932L56.2388 21.8504L47.5919 13.1078L38.9453 4.36523L30.2985 13.1078L21.6519 21.8504L13.0051 30.5932L4.35843 39.3358L13.0051 48.0782L21.6519 56.821L30.2985 65.5637L38.9453 74.306L47.5919 65.5637L56.2388 56.821L64.8854 48.0782L73.5322 39.3358Z" fill="white"/>
<path fill-rule="evenodd" clip-rule="evenodd" d="M60.5538 69.9545L69.2007 78.6971L77.847 69.9545L69.2007 61.2119L60.5538 69.9545Z" fill="white"/>
<path fill-rule="evenodd" clip-rule="evenodd" d="M17.2935 8.75288L8.64673 0.0102539L0 8.75288L8.64673 17.4955L17.2935 8.75288Z" fill="white"/>
<path d="M134.928 44.0732H127.847V77.9136H134.927V56.1107L134.928 44.0732Z" fill="white"/>
<path d="M141.144 66.2497L148.113 77.9136H155.759V44.0732H148.68V66.3111H148.538L141.144 53.958V66.2497Z" fill="white"/>
<path d="M215.37 22.4084L222.471 34.842H215.322L209.007 23.588V17.0024C212.958 16.9977 214.694 14.9839 214.694 11.9405C214.694 8.8443 212.954 6.82931 208.993 6.82931H202.81V14.5067L202.809 24.2403L202.81 34.842H195.564V0.44043H209.235C218.22 0.44043 222.133 5.20751 222.133 11.9405C222.133 16.8549 220.056 20.6883 215.37 22.4084Z" fill="white"/>
</g>
</g>
<defs>
<clipPath id="clip0_3_743">
<rect width="286.687" height="78.6985" fill="white"/>
</clipPath>
</defs>
</svg>
